<?xml version="1.0" encoding="utf-8" ?>
<svg baseProfile="full" height="1300" version="1.1" viewBox="-50 -50 1300 1300" width="1300" xmlns="http://www.w3.org/2000/svg" xmlns:ev="http://www.w3.org/2001/xml-events" xmlns:xlink="http://www.w3.org/1999/xlink"><defs /><path d="M 980.0 0.0 L 898.702 0.0 L 536.667 457.421 A 59.515 59.515 0 0 1 490.0 480.0 A 59.515 59.515 0 0 1 443.33299999999997 457.421 L 81.298 0.0 L 0.0 0.0 L 0.0 22.0 L 294.124 468.731 A 80.0 80.0 0 0 1 253.191 588.42 L 0.0 675.0 L 0.0 731.0 L 50.0 731.0 L 50.0 720.0 A 4.1 4.1 0 0 1 58.19999999999999 720.0 L 422.016 720.0 L 437.017 705.0 L 490.0 705.0 L 542.983 705.0 L 557.984 720.0 L 921.8 720.0 A 4.1 4.1 0 0 1 930.0 720.0 L 930.0 731.0 L 980.0 731.0 L 980.0 675.0 L 726.809 588.42 A 80.0 80.0 0 0 1 685.876 468.731 L 980.0 22.0 " fill="none" stroke="black" stroke-width="0.2" /><path d="M 964.048502 28.043054 L 902.452485 11.374595 L 544.508209 463.627081 A 10 10 0 0 1 544.508141 463.627167 A 69.515 69.515 0 0 1 490.0 490.0 A 69.515 69.515 0 0 1 435.491859 463.627167 A 10 10 0 0 1 435.491791 463.627081 L 76.459564 10.0 L 10.0 10.0 L 10.0 19.003606 L 302.476264 463.231938 A 90.0 90.0 0 0 1 256.426639 597.882063 A 10 10 0 0 1 256.426606 597.882074 L 10.0 682.148954 L 10.0 721.0 L 40.0 721.0 L 40.0 720.0 A 10 10 0 0 1 40.0 719.999999 A 14.1 14.1 0 0 1 68.199999 710.0 L 417.87406 710.0 L 429.946168 697.928696 A 10 10 0 0 1 437.017 695.0 L 490.0 695.0 L 542.983 695.0 A 10 10 0 0 1 550.053832 697.928696 L 562.12594 710.0 L 911.8 710.0 A 14.1 14.1 0 0 1 940.0 720.0 L 940.0 721.0 L 970.0 721.0 L 970.0 682.148954 L 723.573394 597.882074 A 10 10 0 0 1 723.573361 597.882063 A 90.0 90.0 0 0 1 677.523736 463.231938 L 964.048502 28.043054 " fill="none" stroke="black" stroke-width="0.2" /></svg>