<?xml version="1.0" encoding="utf-8" ?>
<svg baseProfile="full" height="1300" version="1.1" viewBox="-50 -50 1300 1300" width="1300" xmlns="http://www.w3.org/2000/svg" xmlns:ev="http://www.w3.org/2001/xml-events" xmlns:xlink="http://www.w3.org/1999/xlink"><defs /><path d="M 980.0 0.0 L 898.702 0.0 L 536.667 457.421 A 59.515 59.515 0 0 1 490.0 480.0 A 59.515 59.515 0 0 1 443.33299999999997 457.421 L 81.298 0.0 L 0.0 0.0 L 0.0 22.0 L 294.124 468.731 A 80.0 80.0 0 0 1 253.191 588.42 L 0.0 675.0 L 0.0 731.0 L 50.0 731.0 L 50.0 720.0 A 4.1 4.1 0 0 1 58.19999999999999 720.0 L 422.016 720.0 L 437.017 705.0 L 490.0 705.0 L 542.983 705.0 L 557.984 720.0 L 921.8 720.0 A 4.1 4.1 0 0 1 930.0 720.0 L 930.0 731.0 L 980.0 731.0 L 980.0 675.0 L 726.809 588.42 A 80.0 80.0 0 0 1 685.876 468.731 L 980.0 22.0 " fill="none" stroke="black" stroke-width="0.2" /><path d="M 980.783642 19.104157 L 899.485642 -2.895843 A 3 3 0 0 0 896.349637 -1.861824 L 534.314648 455.559163 A 56.515 56.515 0 0 1 490.000023 477.0 A 3 3 0 0 0 489.999977 477.0 A 56.515 56.515 0 0 1 445.685352 455.559163 L 83.650363 -1.861824 A 3 3 0 0 0 81.298 -3.0 L 0.0 -3.0 A 3 3 0 0 0 -3.0 0.0 L -3.0 22.0 A 3 3 0 0 0 -2.505679 23.649719 L 291.618321 470.380719 A 77.0 77.0 0 0 1 252.220313 585.581379 L -0.970682 672.161378 A 3 3 0 0 0 -3.0 675.0 L -3.0 731.0 A 3 3 0 0 0 0.0 734.0 L 50.0 734.0 A 3 3 0 0 0 53.0 731.0 L 53.0 720.0 A 1.1 1.1 0 0 1 55.2 720.0 A 3 3 0 0 0 58.2 723.0 L 422.016 723.0 A 3 3 0 0 0 424.13725 722.121391 L 438.259582 708.0 L 490.0 708.0 L 541.740418 708.0 L 555.86275 722.121391 A 3 3 0 0 0 557.984 723.0 L 921.8 723.0 A 3 3 0 0 0 924.8 720.0 A 1.1 1.1 0 0 1 927.0 720.0 L 927.0 731.0 A 3 3 0 0 0 930.0 734.0 L 980.0 734.0 A 3 3 0 0 0 983.0 731.0 L 983.0 675.0 A 3 3 0 0 0 980.970682 672.161378 L 727.779687 585.581379 A 77.0 77.0 0 0 1 688.381679 470.380719 L 982.505679 23.649719 A 3 3 0 0 0 980.783642 19.104157 " fill="none" stroke="black" stroke-width="0.2" /></svg>