<?xml version="1.0" encoding="utf-8" ?>
<svg baseProfile="full" height="1300" version="1.1" viewBox="-50 -50 1300 1300" width="1300" xmlns="http://www.w3.org/2000/svg" xmlns:ev="http://www.w3.org/2001/xml-events" xmlns:xlink="http://www.w3.org/1999/xlink"><defs /><path d="M 975.0 5.0 L 901.121218 5.0 L 540.587604 460.524041 A 5 5 0 0 1 540.587571 460.524083 A 64.515 64.515 0 0 1 490.0 485.0 A 64.515 64.515 0 0 1 439.412429 460.524083 A 5 5 0 0 1 439.412396 460.524041 L 78.878782 5.0 L 5.0 5.0 L 5.0 20.501803 L 298.300132 465.981469 A 85.0 85.0 0 0 1 254.80882 593.151032 A 5 5 0 0 1 254.808803 593.151037 L 5.0 678.574477 L 5.0 726.0 L 45.0 726.0 L 45.0 720.0 A 5 5 0 0 1 45.0 720.0 A 9.1 9.1 0 0 1 63.2 715.0 L 419.94503 715.0 L 433.481584 701.464348 A 5 5 0 0 1 437.017 700.0 L 490.0 700.0 L 542.983 700.0 A 5 5 0 0 1 546.518416 701.464348 L 560.05497 715.0 L 916.8 715.0 A 9.1 9.1 0 0 1 935.0 720.0 L 935.0 726.0 L 975.0 726.0 L 975.0 678.574477 L 725.191197 593.151037 A 5 5 0 0 1 725.19118 593.151032 A 85.0 85.0 0 0 1 681.699868 465.981469 L 975.0 20.501803 L 975.0 5.0 " fill="none" stroke="black" stroke-width="0.2" /><path d="M 970.0 10.0 L 903.540436 10.0 L 544.508209 463.627081 A 10 10 0 0 1 544.508141 463.627167 A 69.515 69.515 0 0 1 490.0 490.0 A 69.515 69.515 0 0 1 435.491859 463.627167 A 10 10 0 0 1 435.491791 463.627081 L 76.459564 10.0 L 10.0 10.0 L 10.0 19.003606 L 302.476264 463.231938 A 90.0 90.0 0 0 1 256.426639 597.882063 A 10 10 0 0 1 256.426606 597.882074 L 10.0 682.148954 L 10.0 721.0 L 40.0 721.0 L 40.0 720.0 A 10 10 0 0 1 40.0 719.999999 A 14.1 14.1 0 0 1 68.199999 710.0 L 417.87406 710.0 L 429.946168 697.928696 A 10 10 0 0 1 437.017 695.0 L 490.0 695.0 L 542.983 695.0 A 10 10 0 0 1 550.053832 697.928696 L 562.12594 710.0 L 911.8 710.0 A 14.1 14.1 0 0 1 940.0 720.0 L 940.0 721.0 L 970.0 721.0 L 970.0 682.148954 L 723.573394 597.882074 A 10 10 0 0 1 723.573361 597.882063 A 90.0 90.0 0 0 1 677.523736 463.231938 L 970.0 19.003606 L 970.0 10.0 " fill="none" stroke="black" stroke-width="0.2" /><path d="M 965.0 15.0 L 905.959654 15.0 L 548.428813 466.730122 A 15 15 0 0 1 548.428712 466.73025 A 74.515 74.515 0 0 1 490.0 495.0 A 74.515 74.515 0 0 1 431.571288 466.73025 A 15 15 0 0 1 431.571187 466.730122 L 74.040346 15.0 L 15.0 15.0 L 15.0 17.505409 L 306.652396 460.482407 A 95.0 95.0 0 0 1 258.044459 602.613095 A 15 15 0 0 1 258.044409 602.613112 L 15.0 685.723431 L 15.0 716.0 L 35.0 716.0 L 35.0 720.0 A 15 15 0 0 1 35.0 719.999999 A 19.1 19.1 0 0 1 73.199999 705.0 L 415.803089 705.0 L 426.410752 694.393045 A 15 15 0 0 1 437.017 690.0 L 490.0 690.0 L 542.983 690.0 A 15 15 0 0 1 553.589248 694.393045 L 564.196911 705.0 L 906.8 705.0 A 19.1 19.1 0 0 1 945.0 720.0 L 945.0 716.0 L 965.0 716.0 L 965.0 685.723431 L 721.955591 602.613112 A 15 15 0 0 1 721.955541 602.613095 A 95.0 95.0 0 0 1 673.347604 460.482407 L 965.0 17.505409 L 965.0 15.0 " fill="none" stroke="black" stroke-width="0.2" /><path d="M 980.0 0.0 L 898.702 0.0 L 536.667 457.421 A 59.515 59.515 0 0 1 490.0 480.0 A 59.515 59.515 0 0 1 443.33299999999997 457.421 L 81.298 0.0 L 0.0 0.0 L 0.0 22.0 L 294.124 468.731 A 80.0 80.0 0 0 1 253.191 588.42 L 0.0 675.0 L 0.0 731.0 L 50.0 731.0 L 50.0 720.0 A 4.1 4.1 0 0 1 58.19999999999999 720.0 L 422.016 720.0 L 437.017 705.0 L 490.0 705.0 L 542.983 705.0 L 557.984 720.0 L 921.8 720.0 A 4.1 4.1 0 0 1 930.0 720.0 L 930.0 731.0 L 980.0 731.0 L 980.0 675.0 L 726.809 588.42 A 80.0 80.0 0 0 1 685.876 468.731 L 980.0 22.0 L 980.0 0.0 " fill="none" stroke="black" stroke-width="0.2" /></svg>